<?xml version="1.0" encoding="UTF-8" standalone="no"?>
<!-- Created with Inkscape (http://www.inkscape.org/) -->

<svg
   xmlns:osb="http://www.openswatchbook.org/uri/2009/osb"
   xmlns:dc="http://purl.org/dc/elements/1.1/"
   xmlns:cc="http://creativecommons.org/ns#"
   xmlns:rdf="http://www.w3.org/1999/02/22-rdf-syntax-ns#"
   xmlns:svg="http://www.w3.org/2000/svg"
   xmlns="http://www.w3.org/2000/svg"
   xmlns:sodipodi="http://sodipodi.sourceforge.net/DTD/sodipodi-0.dtd"
   xmlns:inkscape="http://www.inkscape.org/namespaces/inkscape"
   width="210mm"
   height="297mm"
   viewBox="0 0 210 297"
   version="1.1"
   id="svg8"
   inkscape:version="0.92.4 (5da689c313, 2019-01-14)"
   sodipodi:docname="pig.svg">
  <defs
     id="defs2">
    <linearGradient
       id="linearGradient825"
       osb:paint="solid">
      <stop
         style="stop-color:#000000;stop-opacity:1;"
         offset="0"
         id="stop823" />
    </linearGradient>
  </defs>
  <sodipodi:namedview
     id="base"
     pagecolor="#ffffff"
     bordercolor="#666666"
     borderopacity="1.0"
     inkscape:pageopacity="0.0"
     inkscape:pageshadow="2"
     inkscape:zoom="1.5883909"
     inkscape:cx="799.28247"
     inkscape:cy="550.97143"
     inkscape:document-units="mm"
     inkscape:current-layer="layer1"
     showgrid="false"
     inkscape:window-width="3840"
     inkscape:window-height="2066"
     inkscape:window-x="-11"
     inkscape:window-y="-11"
     inkscape:window-maximized="1" />
  <metadata
     id="metadata5">
    <rdf:RDF>
      <cc:Work
         rdf:about="">
        <dc:format>image/svg+xml</dc:format>
        <dc:type
           rdf:resource="http://purl.org/dc/dcmitype/StillImage" />
        <dc:title></dc:title>
      </cc:Work>
    </rdf:RDF>
  </metadata>
  <g
     inkscape:label="Layer 1"
     inkscape:groupmode="layer"
     id="layer1">
    <circle
       style="opacity:1;fill:#ffbcff;fill-opacity:1;stroke:#ff6dff;stroke-width:1.68200004;stroke-linecap:round;stroke-linejoin:round;stroke-miterlimit:4;stroke-dasharray:none;stroke-opacity:1"
       id="path821"
       cx="108.60573"
       cy="189.39372"
       r="70.960182" />
    <circle
       style="opacity:1;fill:#ffffff;fill-opacity:0.52216749;stroke:#000000;stroke-width:1.68199992;stroke-linecap:round;stroke-linejoin:round;stroke-miterlimit:4;stroke-dasharray:none;stroke-opacity:1"
       id="path854"
       cx="84.369324"
       cy="175.98459"
       r="21.904373" />
    <circle
       style="opacity:1;fill:#000000;fill-opacity:1;stroke:#090a00;stroke-width:1.68199992;stroke-linecap:round;stroke-linejoin:round;stroke-miterlimit:4;stroke-dasharray:none;stroke-opacity:0.56650247"
       id="path856"
       cx="125.76276"
       cy="178.23332"
       r="10.494111" />
    <path
       style="opacity:1;fill:#000000;fill-opacity:0.03940887;stroke:none;stroke-width:1.68199992;stroke-linecap:round;stroke-linejoin:round;stroke-miterlimit:4;stroke-dasharray:none;stroke-opacity:1"
       d="m 141.21,126.75875 a 70.96018,70.96018 0 0 1 24.03057,53.14042 70.96018,70.96018 0 0 1 -70.96001,70.96001 70.96018,70.96018 0 0 1 -33.27033,-8.32455 70.96018,70.96018 0 0 0 46.92944,17.81906 70.96018,70.96018 0 0 0 70.96001,-70.96001 A 70.96018,70.96018 0 0 0 141.21,126.75875 Z"
       id="circle914"
       inkscape:connector-curvature="0" />
    <path
       style="opacity:1;fill:#000000;fill-opacity:0.09359606;stroke:none;stroke-width:1.6819998;stroke-linecap:round;stroke-linejoin:round;stroke-miterlimit:4;stroke-dasharray:none;stroke-opacity:1"
       d="m 112.84488,255.03579 a 32.481768,32.481768 0 0 0 32.48227,-32.48174 32.481768,32.481768 0 0 0 -12.41785,-25.49818 32.481768,32.481768 0 0 1 8.91935,22.333 32.481768,32.481768 0 0 1 -32.48174,32.48174 32.481768,32.481768 0 0 1 -20.063897,-6.98355 32.481768,32.481768 0 0 0 23.561867,10.14873 z"
       id="circle926"
       inkscape:connector-curvature="0" />
    <circle
       style="opacity:1;fill:#ffd4ff;fill-opacity:1;stroke:#ff6dff;stroke-width:1.68199992;stroke-linecap:round;stroke-linejoin:round;stroke-miterlimit:4;stroke-dasharray:none;stroke-opacity:1"
       id="path831"
       cx="108.7723"
       cy="219.54346"
       r="32.48177" />
    <path
       style="opacity:1;fill:#ffd4ff;fill-opacity:1;stroke:#000000;stroke-width:1.68199992;stroke-linecap:round;stroke-linejoin:round;stroke-miterlimit:4;stroke-dasharray:none;stroke-opacity:0.49753699"
       d="m 99.277621,204.88502 3.831179,37.3124"
       id="path833"
       inkscape:connector-curvature="0" />
    <path
       style="opacity:1;fill:#ffd4ff;fill-opacity:1;stroke:#000000;stroke-width:1.68200004;stroke-linecap:round;stroke-linejoin:round;stroke-miterlimit:4;stroke-dasharray:none;stroke-opacity:0.49753699"
       d="m 113.35306,242.19743 3.83118,-37.3124"
       id="path833-3"
       inkscape:connector-curvature="0"
       sodipodi:nodetypes="cc" />
    <circle
       style="opacity:1;fill:#ffffff;fill-opacity:1;stroke:#ffffff;stroke-width:1.68199992;stroke-linecap:round;stroke-linejoin:round;stroke-miterlimit:4;stroke-dasharray:none;stroke-opacity:1"
       id="path862"
       cx="122.76444"
       cy="174.73528"
       r="1.3325856" />
    <path
       style="opacity:1;fill:#ffd3ff;fill-opacity:0.52216749;stroke:#000000;stroke-width:1.68199992;stroke-linecap:round;stroke-linejoin:round;stroke-miterlimit:4;stroke-dasharray:none;stroke-opacity:1"
       d="m 62.131799,176.40101 4.497477,69.96074"
       id="path866"
       inkscape:connector-curvature="0" />
    <path
       style="opacity:1;fill:#0f0f0f;fill-opacity:1;stroke:none;stroke-width:1.68199992;stroke-linecap:round;stroke-linejoin:round;stroke-miterlimit:4;stroke-dasharray:none;stroke-opacity:1"
       d="m 72.625912,61.632081 c 0,0 14.825012,-12.492991 35.146938,-11.99327 20.32193,0.499719 29.48345,7.162645 29.48345,7.162645 l -0.99943,13.492428 c 0,0 -4.9972,34.980366 -4.83062,47.473356 -2.99832,8.49523 -49.305668,4.66405 -49.305668,4.66405 0,0 -4.830621,-40.810427 -9.49467,-60.799209 z"
       id="path876"
       inkscape:connector-curvature="0"
       sodipodi:nodetypes="csccccc" />
    <path
       style="opacity:1;fill:#161616;fill-opacity:1;stroke:none;stroke-width:1.68199992;stroke-linecap:round;stroke-linejoin:round;stroke-miterlimit:4;stroke-dasharray:none;stroke-opacity:1"
       d="m 81.954011,118.93326 c -13.99215,2.33202 -25.818847,4.3309 -36.812677,9.32809 -9.474936,4.3068 63.630956,4.3309 63.630956,4.3309 0,0 41.6433,-1.66573 60.63264,-6.99607 18.2186,-5.114 -37.97868,-7.82894 -37.97868,-7.82894 v 0 c 0,0 -4.33091,1.99888 -8.82838,3.16489 -4.49748,1.16601 -32.481779,1.166 -36.979251,0.83286 -4.497475,-0.33314 -3.664608,-2.83173 -3.664608,-2.83173 z"
       id="path880"
       inkscape:connector-curvature="0"
       sodipodi:nodetypes="cscsccssc" />
    <path
       style="opacity:1;fill:#feffff;fill-opacity:1;stroke:none;stroke-width:1.68199992;stroke-linecap:round;stroke-linejoin:round;stroke-miterlimit:4;stroke-dasharray:none;stroke-opacity:1"
       d="m 80.288277,108.43915 51.860553,-3.97754 -0.72258,13.30563 -49.859077,0.3626 z"
       id="path884"
       inkscape:connector-curvature="0"
       sodipodi:nodetypes="ccccc" />
    <path
       style="opacity:1;fill:#fe74ff;fill-opacity:1;stroke:#ff98ff;stroke-width:1;stroke-linecap:round;stroke-linejoin:round;stroke-miterlimit:4;stroke-dasharray:none;stroke-opacity:1"
       d="m 123.43073,120.93214 c 0,0 2.38832,-23.966329 23.6534,-23.486823 5.5477,13.068523 -11.32698,23.819963 -11.32698,23.819963 z"
       id="path888"
       inkscape:connector-curvature="0"
       sodipodi:nodetypes="cccc" />
    <path
       style="opacity:1;fill:#fe6cff;fill-opacity:1;stroke:#ff98ff;stroke-width:1;stroke-linecap:round;stroke-linejoin:round;stroke-miterlimit:4;stroke-dasharray:none;stroke-opacity:1"
       d="m 90.340596,122.85125 c 0,0 -2.388321,-23.96633 -23.653396,-23.486824 -5.54771,13.068524 11.326975,23.819964 11.326975,23.819964 z"
       id="path888-3"
       inkscape:connector-curvature="0"
       sodipodi:nodetypes="cccc" />
    <path
       style="opacity:1;fill:#ffbcff;fill-opacity:1;stroke:none;stroke-width:1;stroke-linecap:round;stroke-linejoin:round;stroke-miterlimit:4;stroke-dasharray:none;stroke-opacity:1"
       d="m 146.10117,97.44055 c -20.35608,0.26835 -22.67044,23.49159 -22.67044,23.49159 l 5.85081,0.15813 c 0.19202,-1.61985 2.6667,-19.64095 18.11517,-22.83685 -0.0959,-0.26836 -0.19786,-0.53729 -0.31263,-0.80771 -0.33227,-0.007 -0.6598,-0.009 -0.98291,-0.005 z"
       id="path919"
       inkscape:connector-curvature="0" />
    <path
       inkscape:connector-curvature="0"
       id="path924"
       d="m 67.67011,99.359266 c 20.35608,0.26835 22.67044,23.491594 22.67044,23.491594 l -5.85081,0.15813 c -0.19202,-1.61985 -2.6667,-19.64095 -18.11517,-22.83685 0.0959,-0.268364 0.19786,-0.537294 0.31263,-0.807714 0.33227,-0.007 0.6598,-0.009 0.98291,-0.005 z"
       style="opacity:1;fill:#ffbcff;fill-opacity:1;stroke:none;stroke-width:1;stroke-linecap:round;stroke-linejoin:round;stroke-miterlimit:4;stroke-dasharray:none;stroke-opacity:1" />
    <circle
       r="6.1632066"
       cy="171.23724"
       cx="75.291084"
       id="circle931"
       style="opacity:1;fill:#ffffff;fill-opacity:0.52216749;stroke:none;stroke-width:0.47326225;stroke-linecap:round;stroke-linejoin:round;stroke-miterlimit:4;stroke-dasharray:none;stroke-opacity:1" />
    <circle
       style="opacity:1;fill:#ffffff;fill-opacity:0.52216749;stroke:none;stroke-width:0.15349038;stroke-linecap:round;stroke-linejoin:round;stroke-miterlimit:4;stroke-dasharray:none;stroke-opacity:1"
       id="circle933"
       cx="83.619743"
       cy="180.56535"
       r="1.9988768" />
  </g>
</svg>
